<?xml version="1.0" encoding="UTF-8"?>
<!DOCTYPE svg PUBLIC "-//W3C//DTD SVG 1.1//EN" "http://www.w3.org/Graphics/SVG/1.1/DTD/svg11.dtd">
<!-- Creator: CorelDRAW -->
<svg xmlns="http://www.w3.org/2000/svg" xml:space="preserve" width="169.333mm" height="112.861mm" version="1.1" style="shape-rendering:geometricPrecision; text-rendering:geometricPrecision; image-rendering:optimizeQuality; fill-rule:evenodd; clip-rule:evenodd"
viewBox="0 0 16933.32 11286.06"
 xmlns:xlink="http://www.w3.org/1999/xlink"
 xmlns:xodm="http://www.corel.com/coreldraw/odm/2003">
 <defs>
  <style type="text/css">
   <![CDATA[
    .str0 {stroke:#373435;stroke-width:20;stroke-miterlimit:22.9256}
    .fil0 {fill:#204621}
    .fil2 {fill:#F1D3B0}
    .fil3 {fill:#FFA207}
    .fil1 {fill:#F1D3B0;fill-rule:nonzero}
    .fil4 {fill:#FFA207;fill-rule:nonzero}
   ]]>
  </style>
 </defs>
 <g id="Camada_x0020_1">
  <metadata id="CorelCorpID_0Corel-Layer"/>
  <polygon class="fil0 str0" points="-0,4.24 16933.33,4.24 16933.33,11290.3 -0,11290.3 "/>
  <g id="_2317729547728">
   <g>
    <path class="fil1" d="M7761.58 5617.42l0 306.02c0,135.43 2.28,214.21 6.18,236.68 4.23,22.13 19.86,39.39 47.21,51.43 23.76,10.1 39.39,19.54 47.2,28.65 8.14,8.79 12.05,21.49 12.05,38.09 0,20.84 -7.49,40.05 -22.46,57.3 -14.98,17.25 -34.84,29.3 -59.58,36.14 -45.9,14 -123.06,21.16 -231.79,21.16 -122.74,0 -209.01,-9.44 -258.49,-27.67 -22.79,-8.47 -41.67,-21.17 -56.32,-38.75 -14.65,-17.58 -21.82,-35.81 -21.82,-55.01 0,-14.98 3.91,-27.02 11.72,-35.16 8.14,-8.14 25.4,-18.23 52.09,-29.63 24.74,-10.74 40.04,-40.37 45.9,-88.55 10.1,-82.69 15.31,-200.21 15.31,-352.9 0,-155.29 -4.56,-254.91 -13.35,-299.51 -9.12,-44.6 -31.26,-77.48 -66.74,-99.29 -26.7,-15.3 -45.25,-29.63 -55.02,-43.3 -9.77,-13.67 -14.65,-30.28 -14.65,-50.14 0,-31.25 14.98,-58.27 44.6,-81.38 29.95,-23.44 77.81,-44.93 143.25,-64.46 43.94,-13.35 100.59,-26.05 170.59,-38.09 69.99,-12.05 120.78,-18.23 152.68,-18.23 50.13,0 75.2,31.25 75.2,93.43 0,20.51 -2.93,67.06 -9.44,140.31 -8.14,113.62 -13.02,218.12 -14.32,312.86zm759.19 -194.68c116.22,0 218.45,30.28 306.02,90.5 63.16,43.3 113.62,99.62 151.71,168.96 39.39,72.6 59.25,148.13 59.25,226.92 0,138.03 -63.48,255.23 -189.8,351.92 -120.78,92.13 -259.14,138.36 -415.08,138.36 -151.71,0 -274.77,-43.3 -368.85,-129.57 -91.81,-83.99 -137.38,-193.38 -137.38,-328.16 0,-150.08 55.99,-272.81 167.66,-368.2 117.19,-100.6 259.14,-150.73 426.47,-150.73zm-76.5 220.4c-28,0 -50.14,10.42 -67.07,30.93 -16.93,20.83 -25.39,48.18 -25.39,82.36 0,38.42 7.16,90.18 21.48,155.94 14.33,66.09 31.26,124.36 51.12,175.15 19.53,52.09 51.76,78.13 96.36,78.13 56.65,0 84.97,-35.81 84.97,-107.76 0,-53.39 -7.16,-113.94 -21.49,-181.98 -14.32,-68.04 -31.9,-123.39 -52.09,-166.03 -20.83,-43.3 -50.13,-65.44 -87.89,-66.74zm149.42 -633.53c57.95,0 109.39,8.79 154.32,26.05 22.46,8.13 40.37,19.85 54.36,35.16 14,15.3 20.84,30.6 20.19,45.9 -1.3,28.97 -28.33,63.81 -81.06,103.85 -96.04,74.55 -202.17,111.66 -318.72,111.66 -65.44,0 -97.99,-23.76 -97.99,-70.64 0,-17.25 3.25,-29.95 9.76,-38.74 6.84,-8.47 26.05,-24.74 57.95,-49.16 28.65,-20.83 45.91,-34.83 52.42,-41.34 6.18,-6.84 9.44,-14.33 9.44,-23.44 0,-5.54 -3.91,-15.31 -11.4,-28.65 -2.6,-4.24 -3.9,-9.12 -3.9,-14.33 0,-15.62 14.32,-28.97 42.97,-39.39 28.65,-10.42 65.76,-16.28 111.66,-16.93zm957.78 419.97c33.86,0 54.37,4.55 61.53,14.32 7.49,9.44 14,40.04 19.86,91.48 2.93,28 13.02,42 29.3,42 12.7,0 25.07,-9.44 36.46,-27.68 50.79,-79.43 117.2,-119.15 199.24,-119.15 57.95,0 105.16,18.56 141.94,56 17.91,18.55 32.56,42.32 43.95,71.29 11.4,28.65 17.26,56.65 17.26,83.35 0,29.95 -7.16,60.55 -20.84,92.13 -14,31.25 -32.23,57.29 -54.37,77.48 -40.69,39.06 -90.82,58.27 -149.75,58.27 -32.56,0 -59.58,-5.53 -81.71,-17.25 -21.82,-11.4 -50.79,-34.51 -86.28,-69.34 -13.34,-13.35 -25.71,-20.19 -37.11,-20.19 -17.9,0 -29.62,10.09 -34.83,29.95 -5.54,20.19 -8.14,62.18 -8.14,126.64 0,95.71 3.58,161.48 10.42,196.31 4.55,19.21 10.74,32.23 18.55,39.72 8.14,7.16 25.07,14.65 51.11,22.14 57.3,17.25 85.95,47.2 85.95,89.85 0,26.04 -9.44,48.83 -27.67,68.04 -18.56,19.53 -42.97,32.23 -73.58,38.74 -60.87,12.7 -150.73,19.21 -268.9,19.21 -112.64,0 -197.94,-10.09 -256.54,-29.63 -52.09,-17.9 -78.13,-48.83 -78.13,-92.45 0,-33.21 18.88,-62.84 56.97,-88.88 18.56,-12.05 31.25,-23.12 38.41,-32.88 6.84,-9.77 11.72,-23.44 14.33,-40.7 10.09,-57.62 14.97,-164.73 14.97,-321.32 0,-28.65 -2.93,-49.16 -9.44,-61.53 -6.18,-12.37 -18.88,-22.46 -38.09,-29.95 -45.25,-17.9 -67.71,-43.62 -67.71,-77.15 0,-30.61 15.63,-56.98 46.55,-78.79 31.26,-21.81 83.34,-43.62 156.59,-65.43 98,-29.3 181.34,-43.95 249.7,-44.6zm1142.7 59.9l0 554.09c0,43.95 3.91,76.18 12.05,96.36 7.81,20.51 24.09,39.07 48.18,56.32 19.53,14 32.88,26.05 39.39,35.81 6.84,9.77 10.09,22.47 10.09,37.77 0,82.04 -103.85,123.06 -311.88,123.06 -111.99,0 -200.54,-9.12 -265.97,-26.7 -22.47,-6.51 -40.37,-17.58 -54.04,-33.53 -13.68,-15.95 -20.51,-33.86 -20.51,-54.37 0,-17.25 3.58,-30.6 10.41,-40.04 7.17,-9.44 25.07,-24.74 53.72,-45.9 19.53,-14.65 33.53,-38.42 41.67,-71.3 8.46,-33.21 12.7,-82.36 12.7,-147.8 0,-21.16 -1.63,-60.55 -4.56,-117.85 -2.61,-57.62 -4.88,-91.16 -6.19,-100.6 -3.58,-26.04 -21.48,-46.23 -53.39,-60.22 -39.39,-17.26 -58.92,-42.65 -58.92,-76.18 0,-40.05 25.72,-70 77.15,-89.86 71.3,-27.34 147.48,-50.46 228.87,-69.66 81.39,-18.89 144.22,-28.33 188.82,-28.33 35.16,0 52.41,19.54 52.41,58.93zm-188.82 -417.69c55.35,0 99.3,10.42 131.53,30.93 32.55,20.84 48.83,48.51 48.83,83.67 0,48.83 -24.42,87.57 -73.58,116.22 -77.48,45.25 -171.24,67.71 -281.27,67.71 -46.56,0 -83.35,-8.79 -110.69,-26.69 -36.79,-22.79 -55.35,-54.69 -55.35,-95.39 0,-54.69 39.07,-97.66 117.53,-128.92 79.43,-31.58 153.66,-47.53 223,-47.53zm899.51 350.95c110.69,0 204.44,28 281.28,83.99 40.69,29.95 69.34,64.14 85.62,102.55 15.95,38.42 24.09,91.48 24.09,158.87l-1.96 141.94c0,98.64 7.17,162.45 21.16,191.75 6.84,14 13.68,22.79 20.19,26.7 6.18,3.9 19.53,7.16 40.04,10.42 20.19,3.25 30.28,16.6 30.28,40.04 0,30.6 -12.05,62.51 -36.79,95.39 -24.42,33.2 -55.99,60.87 -94.74,83.01 -47.85,28 -97.66,42 -149.75,42 -66.74,0 -119.48,-22.79 -158.22,-68.69 -13.35,-16.61 -25.72,-24.75 -37.44,-24.75 -12.69,0 -29.3,7.82 -50.46,23.77 -63.48,46.55 -135.75,69.67 -216.49,69.67 -83.34,0 -150.73,-17.91 -202.17,-53.39 -33.53,-23.44 -60.55,-54.37 -80.09,-92.13 -19.85,-37.77 -29.62,-77.16 -29.62,-118.51 0,-66.41 26.69,-124.68 80.08,-175.79 83.35,-80.09 208.03,-120.46 374.07,-121.11 36.78,0 59.9,-3.58 69.66,-10.74 9.45,-7.49 14,-24.42 14,-51.11 0,-67.39 -6.83,-116.23 -20.83,-146.5 -14,-29.95 -36.79,-45.26 -68.69,-45.26 -19.21,0 -36.14,5.86 -51.12,17.26 -14.97,11.39 -33.53,32.23 -55.67,62.83 -56.64,80.74 -115.89,121.11 -177.42,121.11 -31.26,0 -56.65,-9.12 -76.18,-27.68 -19.86,-18.23 -29.63,-42.64 -29.63,-72.27 0,-30.6 12.05,-61.2 36.79,-91.8 24.42,-30.28 57.62,-56.98 99.62,-80.09 114.92,-60.88 235.05,-91.48 360.39,-91.48zm-63.81 552.14c-28,0 -52.42,11.39 -72.93,34.51 -20.83,22.78 -30.92,50.13 -30.92,82.04 0,30.6 7.16,55.01 21.81,73.9 14.65,18.55 33.86,27.99 58.27,27.99 50.79,0 76.18,-42.97 76.18,-128.59 0,-35.16 -3.58,-58.6 -11.07,-70.65 -7.16,-12.04 -21.16,-18.55 -41.34,-19.2z"/>
    <g>
     <path class="fil2" d="M6078.41 4596.72c130.62,1.14 330.03,-45.42 481.88,-105.96 232.22,-92.58 161.89,-190.1 388.88,22.14 231.79,216.72 96.3,330.94 -190.51,404.26 -91.41,23.37 -121.18,86.9 -100.49,132.16 67.29,147.18 -86.99,687.35 -713.18,772.63 -86.47,11.77 -1784.4,42.66 -1104.17,709.01 3.5,3.43 -746.05,-225.4 5.23,-732.92 51.15,-34.55 39.58,-84.84 32.71,-89.9 -869.78,-641.11 293.59,-1462.62 1199.65,-1111.42zm-413.67 187.9c135.07,0 244.56,180.2 244.56,402.5 0,222.3 -109.49,402.5 -244.56,402.5 -135.06,0 -244.56,-180.2 -244.56,-402.5 0,-222.3 109.5,-402.5 244.56,-402.5z"/>
     <path class="fil2" d="M4770.42 6568.37c-565.21,286.05 -108.17,616.98 447.77,771.42 653.07,181.42 1886.81,47.19 1830.55,-867.64 -26.85,-436.8 -915.81,-955.99 -1909.87,10.79 733.8,-184.39 1056.48,234.09 824.7,464.67 -290.12,288.63 -1570.88,103.53 -1193.15,-379.24z"/>
    </g>
   </g>
   <g>
    <path class="fil3" d="M8791.76 7208.28c94.56,-55.32 150.35,-115.99 247.48,-175.14 298.8,-181.99 635.31,-256.63 973.15,-219.2 756.37,83.85 3223.68,1019.38 2825.92,-1047.95 -80,549.34 -403.63,1007.43 -1089.6,1043.54 -645.49,34 -1251.22,-249.74 -1906.35,-199.28 -388.23,29.91 -951,313.67 -1050.6,598.03z"/>
    <path class="fil3" d="M9176.77 7222.37c245.72,-128.33 462.1,-159.33 699.3,-147.83 647.63,31.41 2123.86,691.2 2360.08,65.18 -653.99,357.49 -1609.31,-174.14 -2354.89,-194.98 -271.84,-7.6 -511.87,42.76 -704.49,277.63z"/>
    <path class="fil3" d="M11850.03 6682.22c631.1,-106.21 1000.42,-710.18 638.07,-1340.09 46.81,591.53 -100.76,997.78 -638.07,1340.09z"/>
   </g>
   <path class="fil4" d="M7603.26 3624.82l12.62 0.49 -18.96 143.96 -389.38 69.44 -2.44 -13.66 18.86 -3.36c21.24,-3.79 35.2,-13.33 41.86,-28.74 3.79,-8.77 3.07,-27.44 -2.01,-55.91l-58.07 -325.62c-5.6,-31.36 -12.51,-50.37 -20.87,-56.97 -11.56,-9.16 -26.82,-12.06 -45.79,-8.67l-18.86 3.36 -2.43 -13.66 227.7 -40.61 2.44 13.66c-26.73,4.51 -45.03,10.25 -54.98,17.38 -9.85,6.98 -16.02,14.86 -18.56,23.28 -2.52,8.55 -1.21,27.62 4.05,57.1l56.58 317.27c3.68,20.62 8.21,34.3 13.51,41.32 3.85,4.8 9.21,7.75 15.86,9.18 6.5,1.32 26.08,-0.86 58.6,-6.66l36.68 -6.55c38.71,-6.9 65.28,-14.51 79.83,-22.98 14.54,-8.46 27.03,-21.13 37.36,-37.86 10.21,-16.7 19.06,-41.77 26.4,-75.19zm263.64 63.3c-31.76,31.45 -51.9,49.95 -60.45,55.26 -12.64,7.88 -26.53,12.81 -41.71,14.65 -23.73,2.89 -44.24,-2.91 -61.51,-17.23 -17.28,-14.34 -27.53,-34.71 -30.74,-61.12 -2.03,-16.72 -0.11,-31.71 5.94,-44.73 8.14,-18.21 23.93,-36.32 47.36,-54.44 23.57,-18.01 63.32,-41.36 119.51,-69.95l-1.63 -13.39c-4.14,-34.06 -12.33,-56.75 -24.73,-68.18 -12.38,-11.32 -28.84,-15.78 -49.51,-13.27 -15.56,1.89 -27.55,7.62 -35.69,17.29 -8.42,9.56 -11.96,19.84 -10.63,30.81l3.41 21.58c1.4,11.49 -0.45,20.77 -5.56,27.74 -5.1,6.96 -12.51,10.97 -21.95,12.12 -9.32,1.13 -17.36,-1.12 -24.02,-6.92 -6.65,-5.79 -10.68,-14.37 -12.04,-25.59 -2.61,-21.43 5.95,-42.54 25.71,-63.19 19.75,-20.66 49.53,-33.34 89.21,-38.17 30.48,-3.7 55.98,-1.63 76.74,6.2 15.59,5.87 27.91,16.67 36.92,32.27 5.76,10.05 10.73,31.7 14.75,64.74l14.12 116.08c3.96,32.52 7.03,52.48 9.19,59.59 2.18,7.25 4.8,11.85 7.92,14.06 3.24,2.06 6.71,2.94 10.4,2.49 4.09,-0.5 7.43,-1.81 10.28,-3.84 4.83,-3.96 13.8,-14.24 27.04,-30.99l2.54 20.91c-23.48,41.05 -47.98,63.06 -73.5,66.16 -12.25,1.5 -22.58,-1.52 -30.88,-9.05 -8.3,-7.67 -13.76,-21.63 -16.49,-41.89zm-2.96 -24.36l-15.84 -130.24c-36.07,19.54 -59.14,33.09 -69.48,40.69 -18.44,13.38 -31.21,26.45 -38.3,39.49 -7.09,13.02 -9.72,26.54 -7.99,40.71 2.18,17.98 9.34,32.13 21.63,42.67 12.15,10.56 25.36,14.9 39.4,13.2 19,-2.31 42.49,-17.85 70.58,-46.52zm227.83 -411.77l7.57 113.09 80.39 -5.39 1.7 25.39 -80.34 6.16 14.95 223.21c1.5,22.31 5.71,37.23 12.64,44.49 6.81,7.39 15.27,10.7 25.27,10.03 8.34,-0.56 16.11,-3.66 23.58,-9.44 7.35,-5.64 12.86,-13.74 16.41,-24.15l14.62 -0.98c-7.06,25.33 -18.25,44.75 -33.43,58.4 -15.33,13.51 -31.45,20.9 -48.5,22.04 -11.54,0.78 -23.04,-1.68 -34.5,-7.35 -11.45,-5.67 -20.14,-14.36 -26.2,-25.93 -6.05,-11.58 -9.97,-29.72 -11.64,-54.6l-15.56 -232.33 -54.62 3.66 -0.79 -11.92c13.48,-6.44 26.96,-16.61 40.58,-30.53 13.61,-14.05 25.39,-30.43 35.59,-49.27 5.14,-9.87 12.05,-27.85 20.74,-53.81l11.54 -0.77zm211.11 -89.28c10.4,-0.41 19.54,2.95 27.27,9.98 7.63,7.15 11.71,15.98 12.13,26.38 0.42,10.54 -2.94,19.8 -9.96,27.55 -7.14,7.87 -15.98,11.95 -26.38,12.36 -10.53,0.43 -19.79,-2.93 -27.55,-10.2 -7.87,-7.15 -11.95,-16.12 -12.38,-26.65 -0.41,-10.4 2.94,-19.53 9.97,-27.27 7.15,-7.62 16.11,-11.71 26.9,-12.15zm38.18 179.04l11.12 277.33c0.86,21.45 2.97,35.63 6.46,42.57 3.37,7.07 8.21,12.14 14.51,15.36 6.31,3.22 17.67,4.57 33.98,3.91l0.55 13.87 -167.16 6.71 -0.56 -13.87c16.69,-0.67 27.92,-2.79 33.44,-6.23 5.65,-3.44 9.92,-9.01 13.09,-16.6 3.04,-7.58 4.14,-22.03 3.29,-43.21l-5.34 -133.28c-1.49,-37.11 -3.61,-61.07 -6.24,-72.02 -2.11,-7.89 -5.03,-13.3 -9.01,-16.23 -3.85,-3.06 -9.04,-4.4 -15.47,-4.14 -7.06,0.29 -15.46,2.55 -25.32,6.67l-5.82 -13.66 101.91 -46.52 16.57 -0.66zm401.03 217.76c-8.64,45.74 -26.42,80.8 -53.21,105.45 -26.78,24.65 -56.55,37.25 -89.45,37.68 -39.19,0.53 -73.58,-15.47 -103.06,-47.97 -29.6,-32.38 -44.71,-76.64 -45.46,-132.66 -0.72,-54.09 14.75,-98.38 46.55,-132.73 31.79,-34.22 70.24,-51.7 115.35,-52.3 33.92,-0.45 61.79,8.17 83.87,25.87 22.09,17.58 33.26,36.06 33.51,55.46 0.13,9.51 -2.85,17.26 -8.94,23.25 -6.09,5.99 -14.53,9.06 -25.58,9.21 -14.78,0.2 -25.89,-4.41 -33.35,-13.95 -4.56,-5.21 -7.65,-15.32 -9.26,-30.21 -1.62,-14.89 -6.78,-26.25 -15.62,-33.97 -8.96,-7.46 -21.09,-11.03 -36.64,-10.82 -25.19,0.33 -45.23,9.85 -60.27,28.69 -19.97,24.94 -29.7,57.58 -29.16,98.18 0.55,41.24 11.19,77.48 31.78,108.81 20.72,31.21 48.18,46.66 82.61,46.2 24.67,-0.33 46.66,-8.85 65.97,-25.68 13.73,-11.63 26.8,-32.87 39.51,-63.63l10.85 5.12zm174.46 -225.78l-3.7 277.54c-0.28,21.45 1.2,35.74 4.31,42.85 3.12,7.24 7.81,12.56 13.8,16.11 6.11,3.55 17.27,5.5 33.46,5.72l-0.19 13.88 -167.28 -2.23 0.18 -13.88c16.7,0.22 28.03,-1.3 33.72,-4.43 5.84,-3.13 10.4,-8.47 13.97,-15.88 3.44,-7.41 5.31,-21.78 5.59,-42.98l1.78 -133.36c0.49,-37.14 -0.35,-61.18 -2.39,-72.26 -1.69,-7.99 -4.31,-13.55 -8.13,-16.69 -3.68,-3.26 -8.8,-4.87 -15.23,-4.95 -7.07,-0.1 -15.57,1.72 -25.64,5.3l-5.08 -13.94 104.64 -41.01 16.19 0.21zm58.5 -166.54l-112.35 128.04 -12.72 -0.17 41.04 -128.99 84.03 1.12zm151.11 245.92c43.48,-45.38 83.43,-66.92 119.85,-64.48 18.72,1.25 34.55,7.07 47.39,17.34 12.96,10.26 22.57,26.49 29.2,48.57 4.5,15.5 5.65,38.76 3.57,69.79l-9.85 147.19c-1.45,21.67 -0.64,36.4 2.3,44.45 2.27,6.34 6.44,11.51 12.23,15.37 5.93,3.88 17.09,6.43 33.5,7.53l-0.92 13.85 -170.02 -11.39 0.93 -13.85 7.18 0.49c15.89,1.06 27.21,-0.63 33.95,-5.07 6.62,-4.46 11.58,-11.33 14.64,-20.52 1.27,-3.66 2.58,-15.42 3.9,-35.03l9.48 -141.68c2.11,-31.42 -0.47,-54.64 -7.59,-69.41 -7.13,-14.77 -20.24,-22.73 -39.47,-24.02 -29.62,-1.98 -60.2,12.33 -91.75,43.05l-12.23 182.58c-1.55,23.21 -1.09,37.53 1.23,43.23 3.11,7.41 7.64,13 13.55,16.87 5.93,3.75 18.26,6.24 37.11,7.51l-0.92 13.85 -170.79 -11.44 0.92 -13.85 7.57 0.51c17.57,1.17 29.65,-2.4 36.4,-10.83 6.75,-8.43 10.96,-25.15 12.62,-50.02l8.55 -127.71c2.77,-41.28 3.55,-66.47 2.23,-75.58 -1.31,-9.23 -3.72,-15.57 -7.36,-19.03 -3.62,-3.46 -8.77,-5.48 -15.18,-5.91 -7.05,-0.47 -15.51,0.9 -25.51,3.96l-4.71 -14.23 106.68 -35.35 16.16 1.08 -4.84 72.18zm404.1 -218.02c10.36,0.98 18.96,5.54 25.69,13.53 6.6,8.1 9.48,17.4 8.5,27.77 -0.99,10.49 -5.55,19.22 -13.55,25.96 -8.13,6.85 -17.43,9.71 -27.79,8.74 -10.49,-0.99 -19.23,-5.55 -25.94,-13.79 -6.85,-8.14 -9.7,-17.57 -8.71,-28.06 0.97,-10.36 5.52,-18.97 13.51,-25.7 8.11,-6.6 17.53,-9.46 28.29,-8.45zm13.94 182.53l-26 276.34c-2.01,21.37 -1.81,35.71 0.72,43.05 2.4,7.46 6.51,13.13 12.33,17.16 5.82,4.03 16.9,6.88 33.15,8.41l-1.3 13.82 -166.57 -15.67 1.3 -13.82c16.63,1.57 28.05,0.96 33.97,-1.7 6.07,-2.66 11.04,-7.61 15.2,-14.71 4.02,-7.11 7.04,-21.28 9.03,-42.39l12.49 -132.79c3.48,-36.98 4.57,-61.01 3.43,-72.22 -1.04,-8.1 -3.21,-13.85 -6.77,-17.29 -3.4,-3.54 -8.37,-5.55 -14.77,-6.16 -7.04,-0.66 -15.67,0.47 -25.99,3.23l-3.95 -14.31 107.22 -32.5 16.51 1.55zm282.51 33.03c51.72,7.74 90.22,33.51 115.61,77.45 21.55,37.4 29.14,77.91 22.64,121.37 -4.56,30.5 -16.56,60.28 -35.85,89.36 -19.29,29.07 -43.03,49.69 -71.08,61.73 -28.17,12.03 -57.95,15.63 -89.47,10.91 -51.47,-7.7 -89.32,-34.28 -113.45,-79.72 -20.38,-38.39 -27.42,-78.95 -21,-121.9 4.68,-31.26 17.08,-61.25 37.21,-89.8 20.13,-28.57 44.01,-48.38 71.63,-59.32 27.5,-10.96 55.41,-14.32 83.76,-10.08zm-15.23 22.67c-13.08,-1.96 -26.89,0 -41.39,5.76 -14.4,5.9 -27.24,17.89 -38.3,36.24 -11.18,18.34 -19.01,42.89 -23.61,73.65 -7.42,49.56 -3.9,93.74 10.42,132.65 14.31,38.92 37.69,60.74 69.97,65.57 24.01,3.59 45.33,-3.36 63.92,-20.85 18.6,-17.49 31.58,-50.37 38.81,-98.66 9.04,-60.49 3.06,-109.98 -17.8,-148.57 -13.98,-26.39 -34.69,-41.7 -62.02,-45.79zm453.94 47.54l-20.57 115.37 -12.15 -2.17c-2.9,-37.85 -10.55,-64.53 -22.9,-80.18 -12.23,-15.62 -29.77,-25.54 -52.42,-29.58 -17.2,-3.07 -31.93,-1 -44.18,6.22 -12.13,7.23 -19.24,16.41 -21.23,27.54 -2.45,13.79 -0.66,26.38 5.3,37.62 5.79,11.47 19.42,25.01 40.8,40.56l49.48 35.84c45.71,33.48 65,70.21 57.88,110.18 -5.51,30.87 -21.59,53.71 -48.35,68.39 -26.64,14.7 -54.52,19.51 -83.36,14.37 -20.75,-3.7 -43.87,-11.6 -69.16,-23.56 -7.79,-3.87 -14.29,-6.2 -19.48,-7.13 -5.56,-0.99 -10.66,1.24 -14.91,6.75l-12.14 -2.17 21.65 -121.44 12.15 2.16c0.77,35.9 9.27,64.43 25.74,85.52 16.35,21.06 36.67,33.68 60.96,38.01 16.95,3.03 31.74,0.58 44.28,-7.5 12.54,-8.07 20.14,-19.25 22.64,-33.29 3.03,-16.95 -0.5,-32.33 -10.43,-46.11 -9.95,-13.78 -31.27,-32.59 -64.03,-56.71 -32.65,-24.1 -53.21,-44.21 -61.77,-60.62 -8.5,-16 -10.88,-34.83 -7.05,-56.34 4.99,-27.96 18.78,-49.64 41.24,-65.09 22.46,-15.44 48.8,-20.4 79.16,-14.98 13.41,2.39 28.96,8.16 47.02,17.39 11.86,6.03 19.86,9.41 24.04,10.16 4.05,0.72 7.24,0.37 9.84,-0.99 2.46,-1.39 5.81,-4.83 9.8,-10.39l12.15 2.17z"/>
   <path class="fil3" d="M6824.35 3632.69c41.84,0 75.75,33.9 75.75,75.74 0,41.84 -33.91,75.75 -75.75,75.75 -41.83,0 -75.74,-33.91 -75.74,-75.75 0,-41.84 33.91,-75.74 75.74,-75.74z"/>
   <path class="fil3" d="M10558.86 3632.69c41.84,0 75.75,33.9 75.75,75.74 0,41.84 -33.91,75.75 -75.75,75.75 -41.83,0 -75.74,-33.91 -75.74,-75.75 0,-41.84 33.91,-75.74 75.74,-75.74z"/>
  </g>
 </g>
</svg>
